# xmcd
#
# Track frame offsets:
#	521
#	17714
#	31773
#	50409
#	66407
#	84170
#	99498
#	112994
#	127092
#	140712
#	157208
#
# Disc length: 2389 seconds
#
# Revision: 2294882341
# Processed by: cddbd v1.5.2PL0 Copyright (c) Steve Scherf et al.
# Submitted via: EZCDAudioConverter 9.0.2.1
#
DISCID=97094f0b
DTITLE=Josh Turner - Your Man
DYEAR=2006
DGENRE=Country
TTITLE0=Would You Go With Me
TTITLE1=Baby's Gone Home To Mama
TTITLE2=No Rush
TTITLE3=Your Man
TTITLE4=Loretta Lynn's Lincoln
TTITLE5=White Noise
TTITLE6=Angels Fall Sometimes
TTITLE7=Lord Have Mercy On A Country Boy
TTITLE8=Me And God
TTITLE9=Gravity
TTITLE10=Way Down South
EXTD=
EXTT0=
EXTT1=
EXTT2=
EXTT3=
EXTT4=
EXTT5=
EXTT6=
EXTT7=
EXTT8=
EXTT9=
EXTT10=
PLAYORDER=
